<?xml version="1.0" encoding="UTF-8"?>
<svg id="_圖層_1" data-name="圖層 1" xmlns="http://www.w3.org/2000/svg" viewBox="0 0 113.39 113.39">
  <defs>
    <style>
      .cls-1 {
        fill: #474747;
        stroke-width: 0px;
      }
    </style>
  </defs>
  <path class="cls-1" d="M89.82,20.29c-8.51-6.1-19.36-8.5-29.74-6.58-10.55,1.95-19.66,8.01-25.65,17.08l-2.98,5.8c-3.24,8.02-3.9,16.55-1.9,24.64l.12.47h-9.71v-1.04c0-.47,0-.93,0-1.4-.02-1.18-.79-1.95-1.9-1.98-1.07.01-1.82.83-1.83,1.99,0,.46,0,.93,0,1.41v1.05s-1.06,0-1.06,0h-2.56c-4.46,0-5.31,2.31-5.31,6.58,0,8.78,0,16.69,0,25.47,0,3.85,2.7,6.55,6.55,6.55,10.28,0,20.56,0,30.84,0,3.84,0,6.52-2.68,6.53-6.52,0-1.58,0-3.16,0-4.73v-1.76s.52.23.52.23c18.08,7.94,39.18,1.07,49.06-15.99,10.13-17.48,5.4-39.52-10.99-51.27ZM48.12,93.08c0,2.56-2.1,4.64-4.68,4.64H14.53c-2.58,0-4.68-2.08-4.68-4.64v-12.3s0-6.09,0-6.09h38.27v18.39ZM48.12,71.69H9.88v-.37c0-.23,0-.58-.01-.99-.02-1.18-.04-2.81.03-3.46.13-1.27,1.2-2.24,2.56-2.31.13,0,.27,0,.4,0h32.15c1.17,0,2.02.35,2.54,1.05.39.52.58,1.2.58,2.07v4.02ZM89.56,79.75c-7.75,5.34-15.16,7.96-22.65,8-5.4-.12-10.61-1.3-15.47-3.49l-.22-.1v-2.61c0-4.44,0-8.67,0-13.37,0-2.53-.12-4.15-1.74-5.35l-.33-.24.27-.31c4.55-5.17,11-8.13,17.73-8.13.04,0,.09,0,.13,0,12.27.07,22.52,9.58,23.85,22.12.17,1.57-.29,2.58-1.58,3.47ZM59.44,41.76c0-4.79,3.89-8.68,8.68-8.68s8.68,3.89,8.68,8.68-3.89,8.68-8.68,8.68-8.68-3.89-8.68-8.68ZM95,73.92l-.46.53-.18-.68c-2.24-8.48-8.56-18.54-19.6-21.35l-.82-.21.71-.47c3.39-2.22,5.41-5.95,5.41-9.98,0-6.58-5.35-11.93-11.93-11.93s-11.93,5.35-11.93,11.93c0,4.08,2.06,7.83,5.52,10.05l.75.48-.87.2c-1.81.41-3.54.93-5.29,1.58-3.92,1.8-7.28,4.34-9.95,7.54l-.12.14h-.29s-2.41-.02-2.41-.02h-1.24s0-1.13,0-1.13c0-.53,0-1.04,0-1.54-.03-.95-.76-1.71-1.7-1.77-1.02-.07-1.83.58-1.98,1.57-.04.26-.04.53-.04.79v.25c0,.33,0,.67,0,.99v.8s-5.71,0-5.71,0l-.08-.27c-1.51-5.38-3.87-19.3,6.94-32.33,6.29-7.58,15.16-12.14,24.99-12.83,9.81-.69,19.21,2.56,26.47,9.15,15.94,14.47,14.39,36.45,3.82,48.52Z"/>
  <path class="cls-1" d="M40.42,82.47c.56,0,1.07-.25,1.43-.68.28-.34.44-.75.44-1.17,0-.5-.19-.96-.54-1.32-.35-.35-.81-.55-1.31-.55h-.01c-.47,0-.93.18-1.28.51-.37.35-.58.83-.59,1.33,0,.49.19.95.54,1.31.35.36.82.56,1.31.56Z"/>
  <path class="cls-1" d="M40.43,91.4h.01c.49,0,.96-.2,1.31-.55.35-.35.54-.82.54-1.32s-.2-.96-.56-1.31c-.36-.35-.81-.53-1.31-.53-1.01.01-1.86.87-1.85,1.87.01,1.02.85,1.84,1.86,1.84Z"/>
  <path class="cls-1" d="M18.1,82.47c.49,0,.96-.21,1.31-.56.35-.36.54-.82.54-1.31-.01-1.02-.85-1.84-1.86-1.84h-.01c-.49,0-.96.2-1.31.55-.35.35-.54.82-.53,1.32,0,.49.2.96.56,1.31.36.35.86.52,1.31.53Z"/>
  <path class="cls-1" d="M29.25,82.47h.02c1.02,0,1.84-.85,1.84-1.87,0-.5-.2-.96-.55-1.31-.35-.34-.81-.53-1.3-.53h0c-1.02,0-1.84.84-1.84,1.87,0,.5.2.97.56,1.32.35.34.81.53,1.29.53Z"/>
  <path class="cls-1" d="M18.08,91.4h0c1.03,0,1.86-.83,1.86-1.85,0-1.01-.85-1.86-1.86-1.86h0c-.49,0-.95.19-1.3.55-.35.35-.55.82-.55,1.31,0,.49.19.96.54,1.31.35.35.82.55,1.31.55Z"/>
  <path class="cls-1" d="M29.26,87.68h0c-.49,0-.96.19-1.31.54-.35.35-.54.82-.54,1.32s.19.97.54,1.31c.35.35.81.54,1.31.54h0c.5,0,.96-.19,1.31-.54.35-.35.54-.82.54-1.31,0-1.03-.83-1.86-1.85-1.86Z"/>
  <path class="cls-1" d="M89.82,20.29c-8.51-6.1-19.36-8.5-29.74-6.58-10.55,1.95-19.66,8.01-25.65,17.08l-2.98,5.8c-3.24,8.02-3.9,16.55-1.9,24.64l.12.47h-9.71v-1.04c0-.47,0-.93,0-1.4-.02-1.18-.79-1.95-1.9-1.98-1.07.01-1.82.83-1.83,1.99,0,.46,0,.93,0,1.41v1.05s-1.06,0-1.06,0h-2.56c-4.46,0-5.31,2.31-5.31,6.58,0,8.78,0,16.69,0,25.47,0,3.85,2.7,6.55,6.55,6.55,10.28,0,20.56,0,30.84,0,3.84,0,6.52-2.68,6.53-6.52,0-1.58,0-3.16,0-4.73v-1.76s.52.23.52.23c18.08,7.94,39.18,1.07,49.06-15.99,10.13-17.48,5.4-39.52-10.99-51.27ZM48.12,93.08c0,2.56-2.1,4.64-4.68,4.64H14.53c-2.58,0-4.68-2.08-4.68-4.64v-12.3s0-6.09,0-6.09h38.27v18.39ZM48.12,71.69H9.88v-.37c0-.23,0-.58-.01-.99-.02-1.18-.04-2.81.03-3.46.13-1.27,1.2-2.24,2.56-2.31.13,0,.27,0,.4,0h32.15c1.17,0,2.02.35,2.54,1.05.39.52.58,1.2.58,2.07v4.02ZM89.56,79.75c-7.75,5.34-15.16,7.96-22.65,8-5.4-.12-10.61-1.3-15.47-3.49l-.22-.1v-2.61c0-4.44,0-8.67,0-13.37,0-2.53-.12-4.15-1.74-5.35l-.33-.24.27-.31c4.55-5.17,11-8.13,17.73-8.13.04,0,.09,0,.13,0,12.27.07,22.52,9.58,23.85,22.12.17,1.57-.29,2.58-1.58,3.47ZM59.44,41.76c0-4.79,3.89-8.68,8.68-8.68s8.68,3.89,8.68,8.68-3.89,8.68-8.68,8.68-8.68-3.89-8.68-8.68ZM95,73.92l-.46.53-.18-.68c-2.24-8.48-8.56-18.54-19.6-21.35l-.82-.21.71-.47c3.39-2.22,5.41-5.95,5.41-9.98,0-6.58-5.35-11.93-11.93-11.93s-11.93,5.35-11.93,11.93c0,4.08,2.06,7.83,5.52,10.05l.75.48-.87.2c-1.81.41-3.54.93-5.29,1.58-3.92,1.8-7.28,4.34-9.95,7.54l-.12.14h-.29s-2.41-.02-2.41-.02h-1.24s0-1.13,0-1.13c0-.53,0-1.04,0-1.54-.03-.95-.76-1.71-1.7-1.77-1.02-.07-1.83.58-1.98,1.57-.04.26-.04.53-.04.79v.25c0,.33,0,.67,0,.99v.8s-5.71,0-5.71,0l-.08-.27c-1.51-5.38-3.87-19.3,6.94-32.33,6.29-7.58,15.16-12.14,24.99-12.83,9.81-.69,19.21,2.56,26.47,9.15,15.94,14.47,14.39,36.45,3.82,48.52Z"/>
  <path class="cls-1" d="M40.42,82.47c.56,0,1.07-.25,1.43-.68.28-.34.44-.75.44-1.17,0-.5-.19-.96-.54-1.32-.35-.35-.81-.55-1.31-.55h-.01c-.47,0-.93.18-1.28.51-.37.35-.58.83-.59,1.33,0,.49.19.95.54,1.31.35.36.82.56,1.31.56Z"/>
  <path class="cls-1" d="M40.43,91.4h.01c.49,0,.96-.2,1.31-.55.35-.35.54-.82.54-1.32s-.2-.96-.56-1.31c-.36-.35-.81-.53-1.31-.53-1.01.01-1.86.87-1.85,1.87.01,1.02.85,1.84,1.86,1.84Z"/>
  <path class="cls-1" d="M18.1,82.47c.49,0,.96-.21,1.31-.56.35-.36.54-.82.54-1.31-.01-1.02-.85-1.84-1.86-1.84h-.01c-.49,0-.96.2-1.31.55-.35.35-.54.82-.53,1.32,0,.49.2.96.56,1.31.36.35.86.52,1.31.53Z"/>
  <path class="cls-1" d="M29.25,82.47h.02c1.02,0,1.84-.85,1.84-1.87,0-.5-.2-.96-.55-1.31-.35-.34-.81-.53-1.3-.53h0c-1.02,0-1.84.84-1.84,1.87,0,.5.2.97.56,1.32.35.34.81.53,1.29.53Z"/>
  <path class="cls-1" d="M18.08,91.4h0c1.03,0,1.86-.83,1.86-1.85,0-1.01-.85-1.86-1.86-1.86h0c-.49,0-.95.19-1.3.55-.35.35-.55.82-.55,1.31,0,.49.19.96.54,1.31.35.35.82.55,1.31.55Z"/>
  <path class="cls-1" d="M29.26,87.68h0c-.49,0-.96.19-1.31.54-.35.35-.54.82-.54,1.32s.19.97.54,1.31c.35.35.81.54,1.31.54h0c.5,0,.96-.19,1.31-.54.35-.35.54-.82.54-1.31,0-1.03-.83-1.86-1.85-1.86Z"/>
</svg>