<?xml version="1.0" encoding="UTF-8"?>
<svg id="_圖層_1" data-name="圖層 1" xmlns="http://www.w3.org/2000/svg" viewBox="0 0 39.69 39.69">
  <defs>
    <style>
      .cls-1 {
        fill: #fff;
        stroke-width: 0px;
      }
    </style>
  </defs>
  <g id="mQmcQ5">
    <g>
      <path class="cls-1" d="M32.22,14.86c-1.18,0-2.3,0-3.42,0-1.3,0-2.61,0-3.91,0-1.52,0-2.57-1.06-2.57-2.59,0-2.28,0-4.57,0-6.85,0-.14,0-.28,0-.47-.17,0-.3,0-.44,0-4.45,0-8.9,0-13.35,0-.8,0-1.07.27-1.07,1.07,0,1.28,0,2.55,0,3.83,0,.65-.57,1.05-1.13.82-.33-.14-.51-.39-.51-.75,0-1.44-.03-2.89.01-4.33.03-1.21,1.07-2.21,2.28-2.26.67-.03,1.34-.01,2.01-.01,4.04,0,8.07,0,12.11,0,.86,0,1.54.29,2.14.89,2.86,2.88,5.74,5.76,8.62,8.62.59.59.88,1.26.88,2.11-.01,6.24,0,12.49,0,18.73,0,1.66-1.01,2.67-2.67,2.67-7.57,0-15.14,0-22.71,0-1.66,0-2.67-1.01-2.67-2.68,0-6.72,0-13.44,0-20.16,0-.12,0-.23,0-.35.04-.42.38-.74.8-.74.42,0,.77.3.83.72.02.14,0,.28,0,.43,0,6.67,0,13.34,0,20.01,0,.9.24,1.14,1.15,1.14,7.49,0,14.99,0,22.48,0,.88,0,1.13-.25,1.13-1.12,0-6.08,0-12.15,0-18.23,0-.14,0-.28,0-.46ZM23.96,6.2c0,.11,0,.19,0,.28,0,1.91,0,3.82,0,5.72,0,.7.31,1,1.03,1,1.89,0,3.79,0,5.68,0,.1,0,.19-.02.27-.02-2.32-2.32-4.63-4.63-6.98-6.98Z"/>
      <path class="cls-1" d="M22.32,23.93c0,1.86,0,3.71,0,5.57,0,.76-.29,1.05-1.06,1.05-.97,0-1.93,0-2.9,0-.69,0-.99-.31-.99-.99,0-3.75,0-7.51,0-11.26,0-.66.31-.96.98-.96.99,0,1.99,0,2.98,0,.69,0,.99.3,1,.99,0,1.87,0,3.74,0,5.61ZM20.72,29.3v-10.73h-1.75v10.73h1.75Z"/>
      <path class="cls-1" d="M28.92,25.2c0,1.44,0,2.89,0,4.33,0,.72-.29,1.01-1.01,1.01-.98,0-1.96,0-2.94,0-.7,0-1-.31-1-1.02,0-2.9,0-5.8,0-8.7,0-.71.3-1.01,1.02-1.01.98,0,1.96,0,2.94,0,.7,0,.99.29,1,.98,0,1.47,0,2.94,0,4.41ZM27.33,29.26v-8.17h-1.75v8.17h1.75Z"/>
      <path class="cls-1" d="M10.77,26.4c0-1.06,0-2.11,0-3.17,0-.64.31-.94.95-.94,1.02,0,2.04,0,3.05,0,.61,0,.94.32.94.93,0,2.13,0,4.25,0,6.38,0,.63-.33.94-.96.95-1.02,0-2.04,0-3.05,0-.62,0-.93-.32-.93-.93,0-1.07,0-2.14,0-3.21ZM14.12,29.12v-5.42h-1.75v5.42h1.75Z"/>
    </g>
  </g>
</svg>