<?xml version="1.0" encoding="UTF-8"?>
<svg id="_圖層_1" data-name=" 圖層 1" xmlns="http://www.w3.org/2000/svg" version="1.1" viewBox="0 0 39.7 39.7">
  <defs>
    <style>
      .cls-1 {
        fill: #fff;
        stroke-width: 0px;
      }
    </style>
  </defs>
  <path class="cls-1" d="M31.8,24c-.6-3-2.9-4.9-6-4.9h-12c-.4,0-.8,0-1.2.1-3,.6-4.9,2.9-4.9,6v10.7c0,.9.3,1.2,1.2,1.2h9.4c.2,0,.3,0,.4,0,.5-.1.8-.5.8-1,0-.5-.4-.8-.9-.9-.1,0-.3,0-.4,0h-8c-.2,0-.4,0-.5-.2-.1-.2-.2-.4-.2-.5,0-1.6,0-7.9,0-9.5,0-2.2,1.8-4,4-4h12.5c2,0,3.8,1.7,3.8,3.6,0,2.2,0,8.9,0,10s0,.3-.1.4-.3.1-.4.1h-4.4c0,0-.3,0-.4-.1-.1-.1-.1-.3-.1-.4v-1.8c0-.2,0-.3.1-.5.1-.1.3-.2.5-.2h.3c.5,0,1.1,0,1.6,0,.3,0,.6-.1.8-.3.4-.3.3-.8.2-1-.2-.4-.5-.6-.9-.6-.7,0-1.4,0-2.1,0-.1,0-.4,0-.5-.1-.1-.1-.2-.4-.2-.5v-.2c0-.6,0-1.1,0-1.7,0-.3-.2-.6-.3-.8-.2-.3-.8-.3-1-.2-.4.2-.6.5-.6.9,0,.6,0,1.3,0,2,0,.2,0,.4-.2.6s-.4.2-.6.2c-.7,0-1.3,0-1.9,0-.3,0-.5.1-.7.2-.3.2-.4.6-.3,1,.1.4.5.6.9.7.7,0,1.3,0,2,0h0c.2,0,.4,0,.5.2.2.2.2.4.2.5,0,.9,0,1.8,0,2.7v.3c0,.8.4,1.2,1.2,1.2h6.9c.9,0,1.2-.3,1.2-1.2v-10.7c0-.5,0-.8-.1-1.2h0Z"/>
  <path class="cls-1" d="M16.4,15.2c1.9,1.1,4.2,1.2,6.2.3,3-1.3,4.8-4.3,4.3-7.6-.2-1.2-.6-2.3-1.4-3.3-.2-.3-.6-.5-1-.4-.4,0-.6.3-.7.8,0,.3,0,.6.3.9,1.1,1.8,1.2,3.6.3,5.4-.9,1.8-2.5,2.7-4.7,2.8h-.3c-.2,0-.4,0-.6-.1-2.4-.4-4.3-2.6-4.3-5.1,0-2.6,1.8-4.7,4.3-5.2.2,0,.4,0,.6,0,.2,0,.4,0,.6,0,.4,0,.7-.5.7-.9,0-.4-.3-.8-.7-.9-.2,0-.4,0-.6,0s-.5,0-.7,0c-1.9.3-3.6,1.3-4.8,2.9s-1.6,3.5-1.2,5.5c.4,2.1,1.7,3.9,3.6,5h0Z"/>
</svg>