<?xml version="1.0" encoding="UTF-8"?>
<svg id="_圖層_1" data-name="圖層 1" xmlns="http://www.w3.org/2000/svg" viewBox="0 0 113.39 113.39">
  <defs>
    <style>
      .cls-1 {
        fill: #474747;
        stroke-width: 0px;
      }
    </style>
  </defs>
  <path class="cls-1" d="M88.46,22.16c-8.52-6.1-19.36-8.5-29.74-6.58-10.55,1.95-19.66,8.01-25.65,17.08l-2.98,5.8c-3.43,8.48-3.97,17.46-1.54,25.95l.02.07v.08c-.09.66-.17,1.31-.27,1.95-.07.45-.35.62-.5.69-.26.11-.57.07-.84-.12-.55-.39-1.09-.81-1.62-1.23-1.52-1.22-3.56-1.13-4.96.21-.56.54-1.11,1.09-1.65,1.65-1.33,1.4-1.4,3.44-.18,4.96.5.62.89,1.14,1.22,1.62.18.26.22.56.11.83-.11.27-.35.44-.66.5-.69.11-1.39.2-2.09.28-1.86.22-3.24,1.71-3.3,3.55-.02.8-.02,1.61,0,2.49.05,1.85,1.42,3.35,3.27,3.57.69.08,1.37.17,2.06.28.35.05.61.24.72.51.11.27.06.59-.15.88-.39.54-.8,1.07-1.21,1.59-1.2,1.51-1.13,3.53.19,4.92.52.55,1.09,1.12,1.69,1.69,1.39,1.32,3.41,1.4,4.92.2.55-.44,1.1-.86,1.66-1.26.19-.13.36-.17.51-.17.13,0,.24.03.31.06.27.11.45.35.5.67.11.7.2,1.39.28,2.09.22,1.85,1.72,3.23,3.56,3.28.82.02,1.66.02,2.49,0,1.84-.05,3.34-1.44,3.56-3.29.08-.67.17-1.34.27-2.01.06-.38.24-.65.51-.76.27-.11.6-.05.91.18.19.14.37.28.55.42.4.31.77.61,1.19.88,0,0,1.24.71,2.2.73h.2c.89-.04,1.69-.39,2.33-1.01.58-.56,1.16-1.13,1.72-1.72,1.13-1.19,1.35-2.89.58-4.32l-.55-1.02,1.34.65c.19.09.37.18.56.27,17.91,8.12,39.64,1.17,49.48-15.81,10.13-17.48,5.4-39.52-10.99-51.27ZM47.12,82.97c-.53.08-1.03.27-1.48.57-.62.4-1.1.97-1.38,1.64-.13.3-.21.61-.25.94-.12.93.12,1.87.67,2.65h0c.37.52.78,1.07,1.33,1.76.15.19.45.68-.02,1.19-.53.56-1.07,1.09-1.62,1.62-.07.06-.18.16-.35.2l-.1.02-.09-.03c-.17-.05-.51-.17-.66-.25-.32-.2-.59-.42-.87-.64-.28-.22-.5-.39-.73-.56-1.11-.81-2.49-1-3.69-.51-1.19.49-2.03,1.6-2.24,2.96-.11.7-.2,1.4-.28,2.11-.05.44-.38.76-.81.77-.39.01-.78.02-1.16.02s-.78,0-1.16-.02c-.43-.01-.76-.33-.81-.77-.09-.74-.18-1.47-.3-2.21-.21-1.29-1.03-2.35-2.2-2.85-1.16-.49-2.51-.34-3.56.39-.64.45-1.26.94-1.8,1.36-.4.31-.83.3-1.18-.03-.54-.52-1.07-1.04-1.58-1.58-.34-.35-.35-.79-.03-1.18.45-.56.88-1.13,1.3-1.71.79-1.09.96-2.46.46-3.64-.5-1.19-1.59-2.02-2.91-2.22-.71-.11-1.43-.2-2.15-.29-.44-.05-.76-.39-.77-.82-.02-.83-.02-1.59,0-2.33.01-.42.33-.75.78-.81.74-.09,1.48-.18,2.21-.3,1.28-.21,2.33-1.03,2.83-2.2.5-1.17.35-2.51-.4-3.58-.38-.54-.8-1.11-1.34-1.77-.24-.3-.43-.75.02-1.21.51-.53,1.03-1.05,1.56-1.56.5-.48.97-.23,1.21-.04.69.55,1.23.96,1.76,1.33,1.07.76,2.41.91,3.59.42.31-.13.6-.31.88-.54.71-.58,1.18-1.41,1.33-2.34.11-.69.19-1.38.28-2.07l.02-.13c.05-.38.32-.68.68-.74l.11-.02c.78-.02,1.57-.02,2.36,0,.42.01.74.34.79.79.08.74.18,1.48.3,2.22.21,1.27,1.02,2.32,2.19,2.81.75.32,1.57.38,2.37.17.43-.11.83-.29,1.18-.54.66-.45,1.28-.95,1.81-1.37.24-.19.71-.44,1.21.04.21.2.42.41.63.62l.5.5c.14.14.29.28.43.43.47.49.22.97.02,1.21-.53.67-.96,1.23-1.33,1.76-.75,1.06-.9,2.4-.4,3.58.49,1.17,1.55,1.99,2.83,2.2.74.12,1.48.21,2.22.3.45.05.77.38.78.8.02.81.02,1.61,0,2.36-.01.4-.33.73-.76.79-.73.09-1.47.18-2.2.3ZM88.21,81.62c-7.75,5.34-15.16,7.96-22.65,8-5.42-.12-10.64-1.3-15.52-3.51l-.99-.45,1.06-.26c1.63-.4,2.76-1.77,2.82-3.42.03-.81.03-1.66,0-2.55-.06-1.84-1.44-3.33-3.3-3.55-.7-.08-1.39-.17-2.08-.28-.31-.05-.54-.23-.66-.49-.11-.27-.08-.57.11-.83.34-.49.73-1,1.23-1.62,1.22-1.52,1.14-3.56-.19-4.96-.43-.45-.87-.88-1.31-1.31l-.23-.23.19-.26c4.59-6.27,11.55-9.87,19.12-9.87.05,0,.09,0,.14,0,12.27.07,22.52,9.58,23.85,22.12.17,1.57-.29,2.58-1.58,3.47ZM58.09,43.63c0-4.79,3.89-8.68,8.68-8.68s8.68,3.89,8.68,8.68-3.89,8.68-8.68,8.68-8.68-3.89-8.68-8.68ZM93.65,75.79l-.46.53-.18-.68c-2.24-8.48-8.56-18.54-19.6-21.35l-.82-.21.71-.47c3.39-2.22,5.41-5.95,5.41-9.98,0-6.58-5.35-11.93-11.93-11.93s-11.93,5.35-11.93,11.93c0,4.08,2.06,7.83,5.52,10.05l.75.48-.87.2c-1.81.41-3.54.93-5.29,1.58-4.48,2.05-8.2,5.06-11.04,8.92l-.11.14h-.18c-.8.05-1.57.34-2.21.85-.5.4-1.08.85-1.65,1.25-.25.17-.55.21-.81.09-.26-.11-.44-.35-.49-.65-.11-.69-.2-1.39-.28-2.08-.21-1.86-1.7-3.25-3.54-3.31-.85-.03-1.7-.02-2.54,0-.24,0-.49.05-.79.12l-.38.1-.08-.38c-1.31-6.25-2.09-18.46,7.51-30.03,6.29-7.58,15.16-12.14,24.99-12.83,9.81-.69,19.21,2.56,26.47,9.15,15.94,14.47,14.39,36.45,3.82,48.52Z"/>
  <path class="cls-1" d="M33.39,74.74h-.01c-.26,0-.51.02-.76.05-2.96.38-5.19,2.91-5.2,5.89,0,3.29,2.66,5.96,5.94,5.97,2.59,0,4.86-1.65,5.67-4.1.2-.6.3-1.22.3-1.84,0-1.59-.61-3.09-1.74-4.22-1.12-1.13-2.62-1.75-4.21-1.76ZM33.38,83.8h0c-1.71,0-3.1-1.4-3.1-3.12,0-1.71,1.4-3.1,3.11-3.1,1.72,0,3.11,1.4,3.1,3.12,0,1.71-1.4,3.1-3.11,3.1Z"/>
</svg>