<?xml version="1.0" encoding="UTF-8"?>
<svg id="_圖層_1" data-name="圖層 1" xmlns="http://www.w3.org/2000/svg" viewBox="0 0 113.39 113.39">
  <defs>
    <style>
      .cls-1 {
        fill: #474747;
        stroke-width: 0px;
      }
    </style>
  </defs>
  <g id="tVNR5q">
    <g>
      <path class="cls-1" d="M31.31,22.89c0-.93,0-1.76,0-2.59.03-3.09,2.33-5.44,5.39-5.44,15.16-.01,30.33-.01,45.49,0,3.11,0,5.4,2.36,5.41,5.51.01,8.63,0,17.25,0,25.88,0,.55.14.83.66,1.06,10.14,4.64,13.27,17.93,6.27,26.62-.12.15-.24.31-.39.51,2.44,2.43,4.87,4.85,7.3,7.28.22.22.45.42.63.67.43.61.4,1.22-.13,1.74-.53.52-1.15.54-1.75.09-.22-.16-.41-.38-.61-.58-2.43-2.43-4.85-4.86-7.21-7.21-1.54.89-3.03,1.74-4.5,2.62-.17.1-.29.4-.3.61-.04.75-.01,1.51-.01,2.26-.02,2.84-2.26,5.17-5.12,5.27-1.36.05-2.73,0-4.22,0,0,.82,0,1.59,0,2.36-.01,3.41-2.26,5.69-5.66,5.69-15,0-29.99,0-44.99,0-3.36,0-5.65-2.27-5.65-5.61,0-20.38,0-40.76,0-61.14,0-3.34,2.29-5.6,5.65-5.61,1.2,0,2.4,0,3.73,0ZM84.93,45.99v-.86c0-8.1,0-16.19,0-24.29,0-2.36-.95-3.31-3.29-3.31-14.77,0-29.54,0-44.32,0-2.4,0-3.33.93-3.33,3.35,0,20.1,0,40.2,0,60.31,0,2.42.93,3.35,3.33,3.35,14.77,0,29.54,0,44.32,0,.28,0,.56.01.84-.01,1.16-.11,2.2-.96,2.35-2.05.1-.76.02-1.54.02-2.38-5.85,1.25-11-.1-15.41-3.98-4.41-3.87-6.38-8.82-5.93-14.75-6.07,1.14-11.5-.12-16.28-3.82-4.8-3.72-7.56-8.63-7.84-14.74-.52-11.4,8.2-20.91,19.33-21.24,5.62-.17,10.51,1.64,14.52,5.55,5.23,5.09,7.21,11.32,5.97,18.48,1.9.14,3.76.27,5.71.41ZM75.54,87.22c-.42,0-.75,0-1.08,0-12.4,0-24.79,0-37.19,0-3.8,0-5.96-2.16-5.96-5.98,0-18.2,0-36.4,0-54.6v-1.07c-1.23,0-2.32,0-3.4,0-2.35,0-3.3.95-3.3,3.3,0,20.12,0,40.25,0,60.37,0,2.4.94,3.34,3.35,3.34,14.74,0,29.48,0,44.22,0,.28,0,.56.01.84,0,1.36-.09,2.43-1.12,2.51-2.47.05-.92.01-1.84.01-2.88ZM58.12,24.32c-.4.03-.73.05-1.05.09-11.77,1.46-18.67,14.8-13.08,25.27,3.78,7.08,11.96,10.83,19.43,8.91.32-.08.74-.35.84-.63,1.95-5.73,5.77-9.56,11.5-11.49.22-.08.5-.31.55-.52.22-.94.38-1.9.57-2.95h-1.04c-5.28,0-10.55,0-15.83,0-1.5,0-1.9-.39-1.9-1.87,0-5.27,0-10.55,0-15.82,0-.3,0-.6,0-.98ZM80.99,48.43c-8.31-.08-14.73,6.28-14.82,14.69-.09,7.92,6.53,14.63,14.54,14.71,8.13.09,14.88-6.45,14.95-14.47.07-8.43-6.24-14.86-14.66-14.94ZM60.84,40.26h15.92c-.53-9.11-8.57-15.7-15.92-15.86v15.86Z"/>
      <path class="cls-1" d="M56.28,75.16c-2.4,0-4.79,0-7.19,0-1.08,0-1.66-.46-1.67-1.32-.01-.86.57-1.36,1.63-1.36,4.85,0,9.7,0,14.55,0,1.07,0,1.63.48,1.61,1.36-.01.87-.57,1.31-1.66,1.32-2.42,0-4.85,0-7.27,0Z"/>
      <path class="cls-1" d="M54.9,68.46c-1.92,0-3.85,0-5.77,0-1.14,0-1.73-.48-1.71-1.36.01-.86.59-1.32,1.67-1.32,3.93,0,7.86,0,11.8,0,1.08,0,1.63.48,1.62,1.36-.01.87-.56,1.32-1.66,1.32-1.98,0-3.96,0-5.94,0Z"/>
      <path class="cls-1" d="M80.81,75.1c-6.86-.07-12.02-5.35-11.97-12.25.05-6.53,5.57-11.87,12.19-11.82,6.55.05,11.99,5.52,11.93,12-.06,6.9-5.33,12.13-12.15,12.06ZM80.87,72.47c5.14.02,9.41-4.18,9.42-9.25,0-5.36-4.01-9.42-9.34-9.45-5.31-.03-9.38,4.01-9.42,9.37-.04,5.07,4.21,9.32,9.34,9.34Z"/>
    </g>
  </g>
</svg>