<?xml version="1.0" encoding="UTF-8"?>
<svg id="_圖層_1" data-name="圖層 1" xmlns="http://www.w3.org/2000/svg" viewBox="0 0 208.59 76.85">
  <defs>
    <style>
      .cls-1 {
        fill: #fff;
        stroke-width: 0px;
      }
    </style>
  </defs>
  <g>
    <path class="cls-1" d="M75.81,25.05h.05c.3.1.51.18.6.27.09.08.16.21.2.37.04.17.06.49.06.95v9.16c0,.47-.04.85-.11,1.12-.07.27-.2.5-.38.68-.19.18-.51.36-.95.54l-.06.02.28.78.02.06.06-.02c.7-.22,1.25-.5,1.64-.82.39-.32.68-.72.84-1.19.16-.46.25-1.07.25-1.81v-8.53c0-.37.01-.64.04-.82.03-.17.07-.29.12-.38.05-.08.12-.15.22-.2.09-.06.25-.11.47-.17h.05v-.53h-3.4v.52Z"/>
    <path class="cls-1" d="M90.02,34.99c-.13-.12-.24-.28-.33-.5-.1-.22-.2-.53-.33-.96l-2.63-9.08v-.05h-1.33l-3.24,9.06c-.2.56-.4.99-.61,1.29-.21.29-.44.46-.71.5h-.06v.53h3.44v-.52h-.06c-.31-.06-.54-.15-.69-.29-.14-.14-.22-.36-.22-.67,0-.17.02-.35.06-.55.04-.2.13-.5.26-.9l.25-.75h3.51l.27,1c.07.25.13.5.18.71.04.2.06.4.06.59s-.03.33-.08.44c-.06.1-.14.19-.25.24-.12.06-.31.12-.56.17h-.05v.53h3.7v-.52h-.05c-.22-.07-.39-.16-.52-.27ZM84.07,31.25l1.67-4.96,1.39,4.96h-3.05Z"/>
    <path class="cls-1" d="M98.91,32.71c-.12.54-.23.95-.32,1.21-.08.25-.18.45-.28.59-.1.13-.23.23-.38.3-.16.06-.41.1-.75.1h-2.68l5.24-9.88v-.49s-7.1,0-7.1,0v2.93h.88v-.05c.11-.36.2-.67.29-.92.09-.24.18-.43.27-.57.08-.14.17-.24.26-.3.08-.07.18-.12.29-.15.11-.03.26-.05.46-.05h2.7l-5.25,9.87v.5s7.28,0,7.28,0v-3.12h-.88v.05Z"/>
    <path class="cls-1" d="M108.62,32.71c-.12.54-.23.95-.32,1.21-.08.25-.18.45-.28.59-.1.13-.23.23-.38.3-.16.06-.41.1-.75.1h-2.68l5.24-9.88v-.49s-7.1,0-7.1,0v2.93h.88v-.05c.11-.36.2-.67.29-.92.09-.24.18-.43.27-.57.08-.14.17-.24.26-.3.08-.07.18-.12.29-.15.11-.03.26-.05.46-.05h2.7l-5.25,9.87v.5s7.28,0,7.28,0v-3.12h-.88v.05Z"/>
    <path class="cls-1" d="M117.66,32.32l-2.66-7.75-.02-.05h-2.88v.52h.05c.23.08.4.14.49.2.09.05.16.12.21.21.06.08.09.21.12.37.03.17.04.44.04.81v7.05c0,.39-.02.69-.05.88-.03.18-.1.32-.2.42-.07.07-.23.17-.61.27h-.05v.53h2.96v-.52h-.05c-.23-.08-.4-.14-.5-.2-.1-.06-.17-.13-.22-.22-.05-.09-.09-.22-.11-.38-.02-.16-.03-.43-.03-.79v-2.98c0-.93-.01-1.84-.04-2.68-.02-.81-.04-1.39-.07-1.73h.01l2.83,8.16.02.05h.98l3.06-8.07h.01c-.03.33-.05.89-.07,1.66-.02.83-.03,1.67-.03,2.49v3.12c0,.43-.02.74-.06.93-.04.18-.11.31-.21.4-.1.09-.3.17-.58.25h-.05v.53h3.36v-.52h-.05c-.23-.08-.4-.14-.5-.2-.09-.06-.17-.13-.22-.22-.05-.09-.09-.21-.11-.38-.02-.16-.03-.43-.03-.79v-7.05c0-.37.01-.64.04-.82.03-.17.07-.29.12-.38.05-.08.12-.15.22-.2.09-.06.25-.11.47-.17h.05v-.53h-2.73l-2.94,7.8Z"/>
    <path class="cls-1" d="M134.61,34.99c-.13-.12-.24-.28-.33-.5-.1-.22-.2-.53-.33-.96l-2.63-9.08v-.05h-1.33l-3.24,9.06c-.2.56-.4.99-.61,1.29-.21.29-.44.46-.71.5h-.06v.53h3.44v-.52h-.06c-.31-.06-.54-.15-.69-.29-.14-.14-.22-.36-.22-.67,0-.17.02-.35.06-.55.04-.2.13-.5.26-.9l.25-.75h3.51l.27,1c.07.25.13.5.18.71.04.2.06.4.06.59s-.03.33-.08.44c-.06.1-.14.19-.25.24-.12.06-.31.12-.56.17h-.05v.53h3.7v-.52h-.05c-.22-.07-.39-.16-.52-.27ZM128.67,31.25l1.67-4.96,1.39,4.96h-3.05Z"/>
    <path class="cls-1" d="M145.96,35.09c-.15-.08-.3-.21-.47-.38-.17-.18-.4-.5-.7-.95l-2.79-4.27,2.57-3.04c.33-.39.58-.66.74-.82.17-.16.32-.29.48-.38.16-.09.31-.15.47-.19h.05v-.53h-3.51v.53h.06c.19.03.34.08.45.17.1.09.15.23.15.43,0,.14-.03.28-.09.43-.07.2-.22.46-.45.77-.18.26-.52.68-1.01,1.26-.41.49-.72.82-.91.99-.2.17-.37.29-.53.36-.15.06-.33.09-.51.09h-.16v-2.92c0-.38.02-.65.05-.82.03-.17.07-.29.12-.38.05-.08.12-.15.22-.2.09-.06.25-.11.47-.17h.05v-.53h-3.39v.52h.05c.23.08.4.14.49.2.09.05.16.12.21.21.06.08.09.21.12.37.03.16.04.43.04.81v7.05c0,.4-.02.69-.05.88-.03.18-.1.32-.19.42-.07.07-.23.17-.61.27h-.05v.53h3.39v-.52h-.05c-.23-.08-.4-.14-.5-.2-.1-.06-.17-.13-.22-.22-.05-.09-.09-.22-.11-.38-.02-.16-.03-.43-.03-.79v-3.35h.34c.18,0,.32.02.43.07.1.05.2.13.29.22.1.11.26.34.46.66l1.81,2.83c.12.19.22.35.28.49.06.13.08.24.08.33,0,.1-.03.17-.1.21-.08.05-.21.09-.38.1h-.06v.53h3.55v-.52h-.06c-.17-.04-.32-.09-.47-.17Z"/>
    <path class="cls-1" d="M155.03,32.84c-.09.34-.18.63-.24.84-.06.19-.13.38-.22.55-.09.18-.18.31-.29.42-.11.1-.23.18-.38.22-.15.04-.35.07-.6.07h-2.34v-4.57h1.59c.23,0,.4.03.51.1.11.07.21.18.29.33.08.16.16.4.23.72v.05h.86v-3.26h-.85v.05c-.09.34-.17.59-.25.75-.08.15-.18.26-.29.32-.12.06-.29.09-.5.09h-1.59v-4.13h2.38c.2,0,.36.01.5.04.14.03.25.08.35.15.1.08.19.18.28.31.09.13.17.3.25.5.08.19.16.43.24.69v.05h.89v-2.59h-7.37v.52h.05c.23.08.4.14.49.2.09.05.16.12.21.21.06.08.09.21.12.37.03.16.04.43.04.81v7.05c0,.4-.02.69-.05.88-.03.18-.1.32-.19.42-.07.07-.23.17-.61.27h-.05v.53h7.3l.15-2.92v-.07s-.88,0-.88,0v.05Z"/>
    <path class="cls-1" d="M79.75,43.03h-3.91v.52h.05c.23.08.4.14.49.2.09.05.16.12.21.21.06.08.09.21.12.37.02.16.04.43.04.81v7.05c0,.4-.02.69-.05.88-.03.18-.1.32-.19.42-.07.07-.23.17-.61.27h-.05v.53h3.53v-.52h-.05c-.25-.07-.43-.13-.54-.19-.11-.06-.2-.14-.26-.24-.07-.1-.12-.25-.15-.43-.03-.19-.05-.43-.05-.75v-2.63c.32.02.74.03,1.26.03s1.01-.06,1.48-.19c.47-.13.89-.34,1.23-.63.35-.29.62-.67.81-1.13.19-.46.28-.98.28-1.55,0-1.01-.31-1.77-.91-2.27-.6-.49-1.52-.74-2.74-.74ZM81.42,47.71c-.19.36-.48.61-.84.77-.37.16-.85.24-1.42.24h-.83v-4.8c.26-.02.62-.03,1.09-.03.34,0,.65.04.93.12.28.07.52.21.72.39.2.18.36.42.48.73.11.3.17.68.17,1.14,0,.6-.1,1.09-.29,1.45Z"/>
    <path class="cls-1" d="M92.36,50.93c-.1.49-.19.87-.26,1.11-.07.24-.14.45-.22.6-.08.16-.15.29-.23.38-.08.09-.17.17-.27.22-.1.05-.22.09-.36.12-.15.03-.32.04-.55.04h-1.96v-8.27c0-.39.01-.67.04-.84.03-.17.07-.29.13-.37.06-.08.13-.14.22-.19.09-.05.25-.11.47-.17h.05v-.53h-3.39v.52h.05c.23.08.4.14.49.2.09.05.16.12.21.21.06.08.09.21.12.37.03.16.04.43.04.81v7.05c0,.4-.02.69-.05.88-.03.18-.1.32-.19.42-.07.07-.23.17-.61.27h-.05v.53h7.09l.16-3.41h-.91v.05Z"/>
    <path class="cls-1" d="M104.08,53.5c-.13-.12-.24-.28-.33-.5-.1-.22-.2-.53-.33-.96l-2.63-9.08v-.05h-1.33l-3.24,9.06c-.2.56-.4.99-.61,1.29-.21.29-.44.46-.71.5h-.06v.53h3.44v-.52h-.06c-.31-.06-.54-.15-.69-.29-.14-.14-.22-.36-.22-.67,0-.17.02-.35.06-.55.04-.2.13-.5.26-.9l.25-.75h3.51l.27,1c.07.25.13.5.18.71.04.2.06.4.06.59s-.03.33-.08.44c-.06.1-.14.19-.25.24-.12.06-.31.12-.56.17h-.05v.53h3.7v-.52h-.05c-.22-.07-.39-.16-.52-.27ZM98.14,49.76l1.67-4.96,1.39,4.96h-3.05Z"/>
    <path class="cls-1" d="M111.67,48.83c-.37-.3-.89-.63-1.55-.98-.54-.28-.95-.53-1.23-.76-.27-.22-.47-.46-.6-.72-.13-.25-.19-.57-.19-.95,0-.35.07-.65.22-.91.15-.26.35-.44.6-.56.26-.13.55-.19.87-.19.38,0,.69.05.92.15.23.1.43.28.61.53.18.26.32.63.44,1.09v.05h.9v-2.32h-.05c-.56-.16-1.04-.26-1.41-.31-.37-.04-.76-.07-1.16-.07-.68,0-1.3.13-1.83.37-.53.25-.94.61-1.22,1.07-.28.45-.42,1-.42,1.62,0,.43.09.82.27,1.19.18.36.45.7.8,1,.36.31.84.62,1.45.93.62.32,1.08.61,1.38.85.29.24.51.49.64.76.13.27.19.6.19,1,0,.61-.16,1.09-.46,1.4-.31.32-.76.48-1.34.48-.43,0-.78-.07-1.05-.19-.27-.13-.49-.33-.65-.59-.17-.27-.31-.64-.41-1.11v-.05h-.91v2.35h.05c1.06.3,2.01.45,2.82.45.5,0,.97-.06,1.4-.17.43-.12.8-.3,1.11-.55.31-.25.55-.58.73-.99.17-.4.26-.89.26-1.47,0-.52-.11-.98-.31-1.37-.21-.39-.5-.74-.87-1.04Z"/>
    <path class="cls-1" d="M114.99,46h.89v-.05c.11-.43.21-.79.32-1.07.11-.28.23-.5.36-.64.13-.15.26-.24.41-.29.15-.05.35-.07.58-.07h.91v8.27c0,.32-.01.56-.04.73-.03.16-.07.29-.11.38-.04.09-.1.16-.17.22-.07.06-.16.11-.27.15-.12.04-.25.08-.4.12h-.05v.53h3.67v-.52h-.05c-.25-.07-.43-.13-.54-.19-.11-.06-.19-.13-.26-.24-.07-.1-.12-.25-.15-.43-.03-.19-.05-.43-.05-.75v-8.27h.92c.28,0,.48.03.61.08.13.06.26.15.37.28.12.14.23.34.34.6.11.27.22.64.33,1.1v.05h.89v-2.97h-8.51v2.97Z"/>
    <path class="cls-1" d="M126,43.55h.05c.23.08.4.14.49.2.09.05.16.12.21.21.06.08.09.21.12.37.03.16.04.43.04.81v7.05c0,.4-.02.69-.05.88-.03.18-.1.32-.19.42-.07.07-.23.17-.61.27h-.05v.53h3.4v-.52h-.05c-.23-.08-.4-.14-.5-.2-.09-.06-.17-.13-.22-.22-.05-.09-.09-.22-.11-.38-.02-.16-.03-.43-.03-.79v-7.05c0-.38.01-.65.04-.82.03-.17.07-.29.12-.37.05-.08.13-.15.22-.21.09-.06.25-.11.47-.17h.05v-.53h-3.4v.52Z"/>
    <path class="cls-1" d="M138.17,42.98c-.4-.05-.84-.08-1.31-.08-.95,0-1.78.25-2.46.73-.68.48-1.21,1.17-1.56,2.06-.35.88-.53,1.91-.53,3.08,0,1.86.34,3.28,1.02,4.22.68.95,1.7,1.43,3.03,1.43.6,0,1.17-.03,1.68-.1.51-.07,1.01-.17,1.5-.31h.05v-2.46h-.88v.05c-.18.53-.35.93-.53,1.2-.18.27-.4.46-.65.58-.26.12-.6.19-1.01.19-.53,0-.99-.19-1.36-.55-.37-.38-.66-.94-.85-1.67-.19-.74-.29-1.65-.29-2.71s.12-1.96.35-2.69c.23-.73.56-1.29.96-1.65.4-.36.86-.54,1.38-.54.34,0,.64.06.89.17.24.11.45.31.64.58.18.27.34.64.46,1.11v.05h.9v-2.37h-.05c-.51-.15-.97-.25-1.37-.31Z"/>
    <path class="cls-1" d="M152.95,42.98c-.4-.05-.84-.08-1.31-.08-.95,0-1.78.25-2.46.73-.68.48-1.21,1.17-1.56,2.06-.35.88-.53,1.91-.53,3.08,0,1.86.34,3.28,1.02,4.22.68.95,1.7,1.43,3.03,1.43.6,0,1.17-.03,1.68-.1.51-.07,1.01-.17,1.5-.31h.05v-2.46h-.88v.05c-.18.53-.35.93-.53,1.2-.18.27-.4.46-.65.58-.26.12-.6.19-1.01.19-.53,0-.99-.19-1.36-.55-.37-.38-.66-.94-.85-1.67-.19-.74-.29-1.65-.29-2.71s.12-1.96.35-2.69c.23-.73.56-1.29.96-1.65.4-.36.86-.54,1.38-.54.34,0,.64.06.89.17.24.11.45.31.64.58.18.27.34.64.46,1.11v.05h.9v-2.37h-.05c-.51-.15-.97-.25-1.37-.31Z"/>
    <path class="cls-1" d="M163.54,50.93c-.1.49-.19.87-.26,1.11-.07.24-.14.45-.22.6-.08.16-.15.29-.23.38-.08.09-.17.17-.27.22-.1.05-.22.09-.36.12-.14.03-.32.04-.55.04h-1.96v-8.27c0-.39.01-.67.04-.84.03-.17.07-.29.13-.37.06-.08.13-.14.22-.19.09-.05.25-.11.47-.17h.05v-.53h-3.39v.52h.05c.23.08.4.14.49.2.09.05.16.12.21.21.06.08.09.21.12.37.03.16.04.43.04.81v7.05c0,.4-.02.69-.05.88-.03.18-.1.32-.19.42-.07.07-.23.17-.61.27h-.05v.53h7.09l.16-3.41h-.91v.05Z"/>
    <path class="cls-1" d="M166.9,43.55h.05c.23.08.4.14.49.2.09.05.16.12.21.21.06.08.09.21.12.37.03.16.04.43.04.81v7.05c0,.4-.02.69-.05.88-.03.18-.1.32-.19.42-.07.07-.23.17-.61.27h-.05v.53h3.4v-.52h-.05c-.23-.08-.4-.14-.5-.2-.09-.06-.17-.13-.22-.22-.05-.09-.09-.22-.11-.38-.02-.16-.03-.43-.03-.79v-7.05c0-.38.01-.65.04-.82.03-.17.07-.29.12-.37.05-.08.13-.15.22-.21.09-.06.25-.11.47-.17h.05v-.53h-3.4v.52Z"/>
    <path class="cls-1" d="M179.44,43.55h.05c.23.08.4.14.49.2.08.05.15.12.2.2.05.08.08.21.1.37.02.17.03.43.03.81v1.71c0,.75,0,1.62.03,2.67.02.9.04,1.52.06,1.87-.12-.27-.24-.52-.36-.75-.12-.24-.28-.52-.47-.86l-3.82-6.71-.02-.03h-2.53v.52h.05c.23.08.4.14.49.2.09.05.16.12.21.21.06.08.09.21.12.37.02.17.04.44.04.81v7.05c0,.39-.02.69-.05.88-.03.18-.1.32-.2.42-.07.07-.23.17-.61.27h-.05v.53h2.96v-.52h-.05c-.23-.08-.4-.14-.5-.2-.1-.06-.17-.13-.22-.22-.05-.09-.09-.22-.11-.38-.02-.16-.03-.43-.03-.79v-1.66c0-1.04,0-2.14-.02-3.27-.01-1.03-.04-1.77-.07-2.2h.02c.09.2.2.41.3.61.12.22.31.57.57,1.04l4.31,7.61.02.03h1.07v-9.2c0-.39.02-.67.05-.84.03-.16.07-.29.13-.36.05-.08.12-.14.21-.19.09-.05.25-.11.48-.17h.05v-.53h-2.92v.52Z"/>
    <path class="cls-1" d="M185.21,43.55h.05c.23.08.4.14.49.2.09.05.16.12.21.21.06.08.09.21.12.37.03.16.04.43.04.81v7.05c0,.4-.02.69-.05.88-.03.18-.1.32-.19.42-.07.07-.23.17-.61.27h-.05v.53h3.4v-.52h-.05c-.23-.08-.4-.14-.5-.2-.09-.06-.17-.13-.22-.22-.05-.09-.09-.22-.11-.38-.02-.16-.03-.43-.03-.79v-7.05c0-.38.01-.65.04-.82.03-.17.07-.29.12-.37.05-.08.13-.15.22-.21.09-.06.25-.11.47-.17h.05v-.53h-3.4v.52Z"/>
    <path class="cls-1" d="M197.38,42.98c-.4-.05-.84-.08-1.31-.08-.95,0-1.78.25-2.46.73-.68.48-1.21,1.17-1.56,2.06-.35.88-.53,1.91-.53,3.08,0,1.86.34,3.28,1.02,4.22.68.95,1.7,1.43,3.03,1.43.6,0,1.17-.03,1.68-.1.51-.07,1.01-.17,1.5-.31h.05v-2.46h-.88v.05c-.18.53-.35.93-.53,1.2-.18.27-.4.46-.65.58-.26.12-.6.19-1.01.19-.53,0-.99-.19-1.36-.55-.37-.38-.66-.94-.85-1.67-.19-.74-.29-1.65-.29-2.71s.12-1.96.35-2.69c.23-.73.56-1.29.96-1.65.4-.36.86-.54,1.38-.54.34,0,.64.06.89.17.24.11.45.31.64.58.18.27.34.64.46,1.11v.05h.9v-2.37h-.05c-.51-.15-.97-.25-1.37-.31Z"/>
  </g>
  <g>
    <g>
      <path class="cls-1" d="M33.05,34.5c.06.06.15.12.15,0v-.91c0-.19-.19-.31-.19-.31l-4.47-3.72c-.53-.53-1.52-.57-2.11-.08-.58.49-.5,1.27-.5,1.27v11.02c0,1.28-.02,2.57-.14,3.84-.08.86-.21,1.74-.5,2.56-.22.63-.55,1.22-.99,1.72-.46.53-1.03.96-1.61,1.35-.16.11-.38.23-.34.42.03.18.21.23.4.18.42-.11,1.37-.68,1.37-.68.79-.42,1.5-.96,2.09-1.59,1.21-1.29,1.87-2.91,1.87-4.57v-12.85c0-.68.81-1.03,1.3-.56l3.55,2.83s.08.07.12.1Z"/>
      <path class="cls-1" d="M36.35,21.43h-4.56c-.39,0-.39.19-.39.5,0,.28-.01.52.39.52h2.59c.43,0,.77.35.77.77v24.36c0,4.59-.26,6.94-1.15,8.57-.53.97-1.28,1.69-2.33,2.47h0c-.15.1-.3.21-.26.38.03.18.21.23.39.18.04,0,.08-.03.12-.04h0s0,0,0,0l1.41-.79c.79-.49,1.5-1.1,2.09-1.82.55-.67.96-1.42,1.27-2.21.38-.96.6-1.99.6-3.04v-28.9c0-.52-.42-.95-.95-.95Z"/>
      <path class="cls-1" d="M46.51,30.74s.08-.78-.5-1.27c-.58-.49-1.57-.46-2.11.08l-2.07,1.72h0s-2.4,1.99-2.4,1.99c0,0-.19.13-.19.31v.91c0,.12.08.06.15,0,.04-.03.08-.07.12-.1,0,0,0,0,0,0l3.55-2.83c.49-.46,1.17-.11,1.17.56,0,0,.12,12.2,0,13.47-.08.86-.21,1.74-.5,2.56-.22.63-.55,1.22-.99,1.72-.46.53-1.03.96-1.61,1.35-.16.11-.38.23-.34.42.03.18.21.23.4.18.42-.11,1.37-.68,1.37-.68.79-.42,1.5-.96,2.09-1.59,1.21-1.29,1.87-2.91,1.87-4.57v-14.24Z"/>
    </g>
    <path class="cls-1" d="M35.26,6.72c11.77,0,21.34,9.57,21.34,21.34v20.73c0,11.77-9.57,21.34-21.34,21.34h-.6c-11.77,0-21.34-9.57-21.34-21.34v-20.73c0-11.77,9.57-21.34,21.34-21.34h.6M35.26,6.26h-.6c-11.99,0-21.79,9.81-21.79,21.79v20.73c0,11.99,9.81,21.79,21.79,21.79h.6c11.99,0,21.79-9.81,21.79-21.79v-20.73c0-11.99-9.81-21.79-21.79-21.79h0Z"/>
    <path class="cls-1" d="M34.96,3.96c13.29,0,24.1,10.81,24.1,24.1v20.73c0,13.29-10.81,24.1-24.1,24.1s-24.1-10.81-24.1-24.1v-20.73c0-13.29,10.81-24.1,24.1-24.1M34.96,2.89h0c-13.84,0-25.16,11.32-25.16,25.16v20.73c0,13.84,11.32,25.16,25.16,25.16h0c13.84,0,25.16-11.32,25.16-25.16v-20.73c0-13.84-11.32-25.16-25.16-25.16h0Z"/>
  </g>
</svg>