<?xml version="1.0" encoding="UTF-8"?>
<svg id="_圖層_1" data-name="圖層 1" xmlns="http://www.w3.org/2000/svg" viewBox="0 0 113.39 113.39">
  <defs>
    <style>
      .cls-1 {
        fill: #474747;
        stroke-width: 0px;
      }
    </style>
  </defs>
  <g id="ojm9Bx">
    <g>
      <path class="cls-1" d="M101.41,31.18c-.4,2.78-2.14,4.93-3.46,7.26-3.58,6.36-7.24,12.69-10.89,19.01-.45.78-.68,1.55-.67,2.46.03,5.36.02,10.72.02,16.08,0,.29.03.59-.03.87-.14.72-.61,1.14-1.34,1.13-.73-.02-1.19-.44-1.3-1.17-.04-.29-.02-.58-.02-.87,0-4.08,0-8.15,0-12.17-3.48,2.43-6.95,4.89-10.47,7.28-.56.38-1.33.63-2,.63-8.56.04-17.13.03-25.69.03h-1.12v10.96c.36,0,.72,0,1.08,0,10.57,0,21.15,0,31.72,0,1.4,0,2.04.41,2.06,1.32.02.94-.65,1.37-2.1,1.37-10.57,0-21.15,0-31.72,0-.34,0-.68,0-1.12,0v10.16h.83c12,0,24,0,36,0,1.81,0,2.52-.72,2.52-2.56,0-3.26,0-6.52,0-9.79,0-.23,0-.47,0-.7.06-.8.59-1.34,1.32-1.34.73,0,1.34.52,1.35,1.31.02,3.84.07,7.69-.04,11.53-.06,2.29-2.09,4.12-4.45,4.26-.32.02-.64.01-.96.01-21.47,0-42.93,0-64.4,0-3.09,0-4.56-1.46-4.57-4.54,0-2.62,0-5.24,0-7.86,0-.23-.01-.47,0-.7.07-.84.65-1.4,1.4-1.38.75.02,1.3.61,1.31,1.46.02,2.21,0,4.43,0,6.64,0,.76,0,1.51,0,2.27.02,1,.38,1.36,1.38,1.38,1.34.01,2.68,0,4.02,0,6.61,0,13.22,0,19.84,0,1.39,0,1.69-.3,1.69-1.69,0-12.38,0-24.76,0-37.14,0-1.33-.31-1.63-1.66-1.63-7.86,0-15.73,0-23.59,0-1.4,0-1.67.28-1.67,1.69,0,6.96,0,13.92,0,20.88,0,.26.01.53,0,.79-.07.8-.61,1.33-1.34,1.34-.73,0-1.28-.51-1.37-1.31-.03-.23-.01-.47-.01-.7,0-6.99,0-13.98,0-20.97,0-2.96,1.5-4.45,4.47-4.45,7.78,0,15.55.02,23.33-.01,2.04,0,3.57.64,4.37,2.63.06.16.32.28.51.35.15.06.35.01.52.01,8.91,0,17.83,0,26.74.02.67,0,1.03-.19,1.36-.78,3.33-5.87,6.71-11.72,10.04-17.59.23-.41.37-.92.37-1.39.03-5.07.02-10.14.02-15.2,0-1.83-.71-2.55-2.53-2.55-17.83,0-35.65,0-53.48,0-1.81,0-2.51.71-2.51,2.56,0,8.97,0,17.94,0,26.91,0,.29.02.58-.01.87-.07.73-.63,1.26-1.31,1.28-.67.02-1.27-.49-1.37-1.22-.04-.29-.03-.58-.03-.87,0-8.94,0-17.88,0-26.83,0-3.56,1.88-5.44,5.44-5.44,17.71,0,35.42,0,53.13,0,3.47,0,5.36,1.88,5.37,5.32,0,3.58,0,7.16,0,10.92.21-.24.35-.36.43-.5.64-1.11,1.27-2.23,1.92-3.33,1.52-2.59,4.21-3.84,7.11-3.32,2.76.49,4.87,2.7,5.38,5.62.03.17.1.33.15.49v.87ZM44.41,58.11v10.84h26.28c.29-3.63.58-7.21.87-10.84h-27.15ZM81.74,61.32c4.48-7.82,8.93-15.58,13.41-23.39-2.34-1.34-4.62-2.65-6.94-3.98-4.49,7.84-8.94,15.59-13.41,23.39,2.36,1.35,4.62,2.65,6.94,3.98ZM89.52,31.59c2.35,1.35,4.63,2.66,6.96,3.99.62-1.09,1.24-2.07,1.75-3.11.9-1.85.2-4.05-1.56-5.1-1.76-1.05-4.05-.65-5.23,1.02-.7.99-1.26,2.08-1.91,3.2ZM73.51,67.61c2.15-1.5,4.12-2.88,6.19-4.33-1.89-1.08-3.67-2.1-5.58-3.2-.21,2.53-.4,4.92-.61,7.52Z"/>
      <path class="cls-1" d="M28.17,57.21c3.2,0,6.4,0,9.61,0,1.28,0,1.75.46,1.75,1.72,0,2.56,0,5.12,0,7.69,0,1.27-.47,1.74-1.74,1.74-6.4,0-12.81,0-19.21,0-1.28,0-1.75-.48-1.75-1.73,0-2.56,0-5.12,0-7.69,0-1.27.47-1.72,1.74-1.73,3.2,0,6.4,0,9.61,0ZM36.79,59.94h-17.18v5.63h17.18v-5.63Z"/>
      <path class="cls-1" d="M54.39,44.4c-7.54,0-15.08,0-22.63,0-.32,0-.64.01-.96-.03-.73-.1-1.23-.69-1.21-1.37.02-.68.55-1.23,1.28-1.31.26-.03.52-.01.79-.01,15.2,0,30.4,0,45.6,0,.23,0,.47-.01.7,0,.79.07,1.33.62,1.34,1.34,0,.72-.52,1.27-1.32,1.36-.29.03-.58.02-.87.02-7.57,0-15.14,0-22.71,0Z"/>
      <path class="cls-1" d="M54.38,30.7c-3.87,0-7.75,0-11.62,0-.26,0-.53.02-.78-.02-.73-.12-1.13-.57-1.18-1.3-.05-.68.5-1.27,1.22-1.35.2-.02.41-.01.61-.01,7.89,0,15.78,0,23.68,0,.2,0,.41-.01.61.02.73.12,1.15.57,1.17,1.3.01.73-.39,1.2-1.12,1.34-.28.05-.58.03-.87.03-3.9,0-7.8,0-11.71,0Z"/>
      <path class="cls-1" d="M38.85,76.15c0,.78.02,1.57,0,2.35-.05,1.34-.97,2.33-2.31,2.37-1.68.05-3.37.06-5.05,0-1.28-.05-2.22-1.04-2.25-2.33-.04-1.63-.04-3.25,0-4.88.03-1.33.96-2.32,2.3-2.38,1.65-.07,3.31-.07,4.97,0,1.43.06,2.32,1.07,2.35,2.52.02.78,0,1.57,0,2.35h0ZM32.01,74.02v4.13h4.1v-4.13h-4.1Z"/>
      <path class="cls-1" d="M34.03,93.43c-.81,0-1.63.02-2.44,0-1.32-.05-2.32-1-2.35-2.33-.04-1.66-.04-3.31,0-4.97.03-1.27,1.01-2.27,2.28-2.31,1.68-.05,3.37-.06,5.05,0,1.28.04,2.23,1.04,2.26,2.32.04,1.66.04,3.31,0,4.97-.03,1.32-1.03,2.26-2.37,2.31-.81.03-1.63,0-2.44,0ZM32.01,86.58v4.09h4.1v-4.09h-4.1Z"/>
      <path class="cls-1" d="M22.24,80.89c-.76,0-1.52.02-2.27,0-1.48-.06-2.44-1.02-2.46-2.5-.02-1.54-.02-3.09,0-4.63.02-1.43.95-2.43,2.39-2.48,1.6-.06,3.2-.06,4.8,0,1.48.05,2.4,1.06,2.42,2.55.02,1.51.02,3.03,0,4.54-.02,1.52-.99,2.48-2.53,2.53-.79.02-1.57,0-2.36,0ZM20.27,74.02v4.14h4.11v-4.14h-4.11Z"/>
      <path class="cls-1" d="M22.28,93.43c-.76,0-1.51.02-2.27,0-1.49-.04-2.47-1-2.5-2.46-.03-1.57-.03-3.15,0-4.72.03-1.37.99-2.39,2.36-2.43,1.63-.05,3.26-.05,4.89,0,1.37.04,2.34,1.04,2.37,2.42.03,1.6.03,3.2,0,4.8-.03,1.37-1.02,2.34-2.4,2.38-.81.03-1.63,0-2.45,0ZM20.26,86.57v4.11h4.1v-4.11h-4.1Z"/>
    </g>
  </g>
</svg>