<?xml version="1.0" encoding="UTF-8"?>
<svg id="_圖層_1" data-name="圖層 1" xmlns="http://www.w3.org/2000/svg" viewBox="0 0 39.69 39.69">
  <defs>
    <style>
      .cls-1 {
        fill: #b3b3b3;
        stroke-width: 0px;
      }
    </style>
  </defs>
  <path class="cls-1" d="M33,30.36l-7.31-7.29s-.1-.07-.16-.1c1.34-1.56,2.16-3.48,2.35-5.57.24-2.64-.57-5.21-2.27-7.25-1.7-2.03-4.09-3.28-6.73-3.52-2.64-.24-5.21.57-7.25,2.27-2.03,1.7-3.28,4.09-3.52,6.73-.24,2.64.57,5.21,2.27,7.25,1.7,2.03,4.09,3.28,6.73,3.52.3.03.6.04.9.04,2.23,0,4.37-.75,6.13-2.15.04.06.07.13.13.19l7.31,7.29c.19.19.45.29.71.29s.51-.1.71-.29c.39-.39.39-1.02,0-1.41ZM23.07,22.6c-1.62,1.36-3.68,2-5.79,1.81-4.35-.39-7.58-4.24-7.19-8.59.19-2.11,1.19-4.02,2.81-5.38,1.44-1.2,3.22-1.85,5.07-1.85.24,0,.48.01.72.03,2.11.19,4.02,1.19,5.37,2.81,1.36,1.62,2,3.68,1.81,5.79h0c-.19,2.11-1.19,4.02-2.81,5.37Z"/>
</svg>