<?xml version="1.0" encoding="UTF-8"?>
<svg id="_圖層_1" data-name="圖層 1" xmlns="http://www.w3.org/2000/svg" viewBox="0 0 39.69 39.69">
  <defs>
    <style>
      .cls-1 {
        fill: #474747;
        stroke-width: 0px;
      }
    </style>
  </defs>
  <path class="cls-1" d="M19.86,5.27h-.01c-8.14,0-14.77,6.62-14.78,14.76,0,3.95,1.53,7.67,4.32,10.46,2.79,2.8,6.5,4.34,10.45,4.34h.01c3.93,0,7.63-1.54,10.43-4.33,2.8-2.8,4.34-6.5,4.35-10.44,0-8.15-6.62-14.78-14.76-14.79ZM16.4,16.67c.9-.88,2.09-1.36,3.35-1.36h.03c1.28,0,2.47.51,3.36,1.42.89.91,1.37,2.12,1.36,3.41-.02,2.57-2.15,4.65-4.75,4.65h-.03c-1.29,0-2.49-.5-3.38-1.4-.88-.9-1.36-2.1-1.36-3.4,0-1.26.51-2.44,1.41-3.32ZM19.69,26.14s.03,0,.04,0c3.43,0,6.57,1.56,8.63,4.28-4.75,4.14-12.41,4.09-17.17-.11,1.94-2.6,5.11-4.16,8.51-4.18ZM22.93,25.23c1.92-1.3,2.89-3.07,2.88-5.27,0-1.67-.65-3.11-1.9-4.31-1.18-1.13-2.75-1.72-4.38-1.65-1.67.06-3.2.77-4.32,2.01-1.2,1.32-1.75,3.2-1.48,5.02.26,1.74,1.24,3.22,2.77,4.21-1.27.36-2.39.87-3.44,1.55-1.06.69-2.03,1.56-2.88,2.6-2.83-2.73-4.9-7.88-3.2-13.34,1.7-5.47,6.83-9.35,12.47-9.44.08,0,.16,0,.24,0,5.81,0,10.95,3.6,12.84,9.03,1.96,5.6-.18,10.98-3.19,13.89-1.71-2.14-3.82-3.54-6.43-4.29Z"/>
</svg>