<?xml version="1.0" encoding="UTF-8"?>
<svg id="_圖層_1" data-name=" 圖層 1" xmlns="http://www.w3.org/2000/svg" version="1.1" viewBox="0 0 39.7 39.7">
  <defs>
    <style>
      .cls-1 {
        fill: #fff;
        stroke-width: 0px;
      }
    </style>
  </defs>
  <path class="cls-1" d="M34.6,12.4c0-1.7-.7-2.9-2.2-3.8-.6-.4-1.3-.6-2.2-.6h-1.7v-1.8c0-.6-.5-1.2-1.1-1.2-.7,0-1.2.4-1.3,1.1,0,.2,0,.4,0,.5v1.4h-12.5v-1.6c0-.8-.5-1.3-1.3-1.3h0c-.7,0-1.2.6-1.2,1.3v1.7h-1.6c-2.6,0-4.4,1.8-4.4,4.4v17.7c0,2.6,1.8,4.4,4.4,4.4h20.7c2.6,0,4.4-1.8,4.4-4.4V12.4h0ZM32.7,29.9c0,1.8-1.4,3.2-3.2,3.2H9.8c-1.8,0-3.2-1.4-3.2-3.2v-13.3h26v13.3h0ZM32.7,15.2H6.7v-.9c0-.8,0-1.9,0-2.4,0-.9.9-2.2,2.4-2.2h21.1c1.4,0,2.5,1.3,2.5,2.7v2.8h0Z"/>
  <path class="cls-1" d="M27.3,22.6c.3,0,.6-.1.9-.4.2-.2.4-.5.4-.9s-.1-.6-.4-.9c-.2-.2-.5-.4-.9-.4h0c-.7,0-1.2.6-1.2,1.2s.1.6.4.9c.2.2.5.4.9.4h0Z"/>
  <path class="cls-1" d="M28.2,26.4c-.2-.2-.5-.4-.9-.4h0c-.7,0-1.2.6-1.2,1.3,0,.7.6,1.2,1.2,1.2h0c.3,0,.6-.1.9-.4.2-.2.4-.5.4-.9s-.1-.6-.4-.9h0Z"/>
  <path class="cls-1" d="M12.3,22.6c.3,0,.6-.1.9-.4.2-.2.4-.5.4-.9,0-.7-.6-1.2-1.3-1.2h0c-.3,0-.6.1-.9.4-.2.2-.4.5-.4.9s.1.6.4.9c.2.2.6.4.9.4Z"/>
  <path class="cls-1" d="M19.9,22.6c.7,0,1.2-.6,1.2-1.3s-.1-.6-.4-.9c-.2-.2-.5-.4-.9-.4h0c-.7,0-1.2.6-1.2,1.3s.1.6.4.9c.2.2.6.4.9.4h0Z"/>
  <path class="cls-1" d="M12.3,28.6h0c.7,0,1.2-.6,1.2-1.2s-.6-1.2-1.2-1.2h0c-.3,0-.6.1-.9.4-.2.2-.4.5-.4.9s.1.6.4.9c.2.2.6.4.9.4Z"/>
  <path class="cls-1" d="M19.8,28.6c.7,0,1.2-.6,1.2-1.2s-.6-1.2-1.2-1.2h0c-.7,0-1.2.6-1.2,1.2s.6,1.2,1.2,1.2h0Z"/>
</svg>