<?xml version="1.0" encoding="UTF-8"?>
<svg id="_圖層_1" data-name="圖層 1" xmlns="http://www.w3.org/2000/svg" viewBox="0 0 113.39 113.39">
  <defs>
    <style>
      .cls-1 {
        fill: #474747;
        stroke-width: 0px;
      }
    </style>
  </defs>
  <path class="cls-1" d="M96.93,31.65c-.29-2.48-.75-2.87-3.22-3.15-.06,0-.12-.02-.18-.03-6.84-.72-13.12-3.33-19.34-6.01-4.56-1.96-8.76-4.62-12.87-7.4-1.52-1.03-3.02-1.29-4.67-.26-3.02,1.89-6,3.83-9.11,5.55-7.59,4.18-15.59,7.25-24.28,8.24-1.74.2-2.08.51-2.4,2.29-1.42,7.77-1.76,15.59-.76,23.43,1.58,12.35,6.5,23.22,14.69,32.6,6.08,6.96,13.54,12.06,21.78,16.11,1.55.76,3,.65,4.54-.09,4.99-2.38,9.7-5.19,13.98-8.7,15.18-12.46,22.6-28.61,22.91-48.13.3-4.89-.52-9.67-1.08-14.47ZM95.17,45.33c-.15,14.19-4.22,27.04-13.24,38.16-5.93,7.32-13.38,12.68-21.83,16.73-.76.36-1.47.59-2.33.16-5.9-3-11.55-6.36-16.43-10.91-10.37-9.67-16.42-21.55-18.36-35.57-.78-5.61-.64-11.22-.06-16.84.17-1.63.38-3.26.55-4.89.05-.5.23-.73.76-.8,9.72-1.34,18.66-4.85,27.08-9.78,2.15-1.26,4.24-2.61,6.33-3.98.79-.52,1.42-.58,2.22-.03,4.31,2.92,8.81,5.51,13.53,7.71,6.34,2.95,12.89,5.24,19.87,6.1.56.07.74.31.82.85.63,4.34,1.19,8.68,1.09,13.09Z"/>
  <path class="cls-1" d="M87.24,34.11c-3.22-.76-6.41-1.67-9.55-2.72-5.54-1.85-10.5-4.92-15.51-7.84-2.39-1.39-4.6-1.56-6.89.05-.27.19-.56.37-.85.53-2.78,1.56-5.52,3.21-8.36,4.64-4.93,2.5-10.16,4.22-15.58,5.28-2.27.45-3.51,1.65-3.72,3.92-.3,3.29-.62,13.63-.39,15.46,1.25,10.17,5.07,19.28,11.49,27.28,5.05,6.29,11.25,11.14,18.49,14.69,1.55.76,3.06.92,4.63.12.76-.38,1.55-.71,2.29-1.12,11.49-6.33,19.68-15.58,24.63-27.73,2-4.9,2.9-10.03,3.38-15.25.43-4.6.26-9.17-.54-13.72-.36-2.04-1.45-3.14-3.52-3.62ZM70.37,86.14c-2.95,2.49-6.22,4.56-9.67,6.33-1.37.7-2.56.67-3.94-.05-8.58-4.46-15.41-10.76-20.43-19.02-5.4-8.89-7.74-18.56-7.28-28.92.09-2.09.4-4.18.57-6.27.07-.84.59-1.09,1.29-1.28,3.05-.82,6.13-1.54,9.13-2.53,5.18-1.71,10.09-4.04,14.64-7.1.68-.46,1.41-.84,2.12-1.24,1.53-.86,2.96-.71,4.46.22,2.34,1.46,4.74,2.86,7.17,4.17,5.66,3.06,11.7,5.07,17.97,6.39,1.05.22,1.53.74,1.62,1.74.25,2.78.51,5.56.72,7.88-.47,16.21-6.24,29.44-18.37,39.68Z"/>
  <path class="cls-1" d="M79.28,54.7c-.29-.47-.59-.93-.91-1.38-.1-.15-.22-.29-.32-.43-.22-.3-.44-.59-.67-.88-.13-.16-.27-.32-.41-.48-.22-.25-.44-.5-.66-.75-.15-.16-.31-.32-.46-.48-.23-.23-.46-.45-.69-.67-.16-.15-.33-.3-.5-.45-.24-.21-.48-.42-.73-.62-.17-.14-.34-.28-.52-.41-.26-.2-.52-.39-.79-.58-.17-.12-.34-.24-.52-.36-.29-.19-.59-.38-.89-.56-.16-.09-.31-.19-.47-.28-.4-.23-.8-.44-1.22-.65-.07-.03-.13-.07-.2-.1-.48-.23-.97-.45-1.46-.65-.15-.06-.3-.11-.45-.17-.35-.13-.7-.26-1.06-.38-.19-.06-.39-.12-.58-.18-.32-.1-.64-.19-.96-.27-.21-.05-.42-.1-.64-.15-.31-.07-.62-.14-.94-.19-.22-.04-.44-.08-.66-.11-.31-.05-.63-.09-.95-.12-.22-.02-.45-.05-.67-.07-.32-.03-.65-.04-.97-.05-.22,0-.44-.02-.65-.02-.36,0-.73,0-1.09.02-.18,0-.35,0-.53.02-.54.03-1.09.08-1.63.15-2.84.37-5.43,1.14-7.77,2.3-3.9,1.94-7.12,4.95-9.67,8.99-.15.24-.26.47-.34.7-.07.23-.11.46-.11.69,0,.11.01.23.03.34.05.3.17.6.35.92.02.04.04.08.07.13,2.07,3.26,4.55,5.8,7.41,7.66,1.23.8,2.52,1.47,3.89,2.02.91.37,1.85.68,2.83.93.97.26,1.98.46,3.01.61s2.1.24,3.2.28c.68-.04,1.37-.05,2.05-.12.99-.11,1.95-.26,2.88-.46,2.79-.59,5.33-1.6,7.61-3.03.38-.24.75-.49,1.12-.75.73-.52,1.44-1.09,2.11-1.7.34-.31.67-.62.99-.95.97-.98,1.88-2.07,2.72-3.26.28-.4.56-.8.82-1.22.08-.12.15-.24.2-.36.12-.24.19-.47.23-.71.06-.35.02-.7-.09-1.05-.08-.24-.19-.48-.34-.72ZM76.29,56.53c-8.29,12.03-26.3,12.05-34.61.04-.24-.35-.23-.56.01-.89,4.28-5.86,10.08-8.8,17.25-9.05,7.27.25,13.06,3.21,17.33,9.08.21.29.24.5.02.82Z"/>
  <path class="cls-1" d="M58.97,48.67c-2.26,0-4.29,1.02-5.66,2.62-1.12,1.31-1.81,3.01-1.8,4.86,0,1.85.69,3.54,1.82,4.85,1.37,1.59,3.39,2.6,5.64,2.6,2.25,0,4.28-1.01,5.65-2.6,1.13-1.31,1.82-3.01,1.82-4.87,0-1.83-.68-3.51-1.79-4.81-1.37-1.61-3.4-2.63-5.67-2.64ZM63.25,56.16c-.01,2.34-1.94,4.26-4.28,4.26-2.36,0-4.29-1.95-4.28-4.31.01-2.34,1.94-4.26,4.28-4.26,2.36,0,4.29,1.94,4.28,4.31Z"/>
</svg>