<?xml version="1.0" encoding="UTF-8"?>
<svg id="_圖層_1" data-name=" 圖層 1" xmlns="http://www.w3.org/2000/svg" version="1.1" viewBox="0 0 39.7 39.7">
  <defs>
    <style>
      .cls-1 {
        fill: #fff;
        stroke-width: 0px;
      }
    </style>
  </defs>
  <path class="cls-1" d="M33.3,13.9v-.2h0v-6.7c0-.5-.2-1-.5-1.3-.3-.3-.8-.4-1.3-.3-3.9.7-7.5,0-10.7-2.2-.6-.4-1.2-.4-1.8,0-3.3,2.2-6.9,2.9-10.8,2.2-.1,0-.2,0-.4,0-.4,0-.7.1-.9.3-.3.3-.5.7-.5,1.2,0,1.2,0,2.4,0,3.5,0,3.1,0,6.3,0,9.4.1,5,2.2,9,6.3,12.1,1.5,1.1,3.1,2.2,4.5,3.3l1.7,1.2c.6.4,1.2.5,1.8,0,.6-.4,1.2-.8,1.8-1.3,1.5-1.1,3.1-2.2,4.6-3.3,3.8-2.9,5.8-6.6,6.1-11.3,0-1.5,0-3.1,0-4.6,0-.7,0-1.4,0-2.1h0ZM31.1,20.9c-.2,3.7-1.9,6.8-5.2,9.3-1.2.9-2.4,1.8-3.6,2.6-.7.5-1.3.9-2,1.4-.1,0-.3.2-.4.2s-.3,0-.4-.2c-.6-.5-1.3-.9-2-1.4-1.2-.9-2.5-1.8-3.7-2.7-3.4-2.6-5.2-6.1-5.2-10.4,0-2.7,0-5.4,0-8v-3.4c0,0,0-.2,0-.3v-.4h1.2c.7,0,1.3,0,1.9,0,2.7-.2,5.3-.9,7.8-2.3.2-.1.5-.3.9,0,3.2,1.8,6.7,2.7,10.4,2.4h.5v.2c0,1.3,0,2.6,0,3.9,0,2.9,0,6-.1,9h0Z"/>
  <g>
    <path class="cls-1" d="M18.7,17.5v1.5c0,.4.1.7.4.9.2.2.5.3.8.3h0c.7,0,1.2-.5,1.2-1.2v-5.9c0-.4-.1-.7-.4-.9-.2-.2-.5-.3-.8-.3-.7,0-1.2.5-1.2,1.2v4.4Z"/>
    <path class="cls-1" d="M19.9,23.3h0c-.8,0-1.5.6-1.5,1.4s.6,1.6,1.5,1.6c.4,0,.8-.1,1-.4.3-.3.5-.7.5-1.2,0-.7-.8-1.4-1.5-1.4Z"/>
  </g>
</svg>