<?xml version="1.0" encoding="UTF-8"?>
<svg id="_圖層_1" data-name=" 圖層 1" xmlns="http://www.w3.org/2000/svg" version="1.1" viewBox="0 0 39.7 39.7">
  <defs>
    <style>
      .cls-1 {
        fill: #fff;
        stroke-width: 0px;
      }
    </style>
  </defs>
  <path class="cls-1" d="M19.9,15.2h0c-2.5,0-4.6,2.1-4.6,4.6s2.1,4.6,4.6,4.6h0c2.5,0,4.6-2.1,4.6-4.6s-.5-2.4-1.4-3.3c-.9-.9-2-1.4-3.3-1.4ZM22.8,19.9c0,1.6-1.4,3-3,3h0c-1.6,0-3-1.4-3-3s1.4-3,3-3h0c.8,0,1.5.3,2.1.9.6.6.9,1.3.9,2.1h0Z"/>
  <path class="cls-1" d="M35.9,18.8c0-1.4-1.1-2.5-2.4-2.6-.6,0-1.2-.1-1.8-.2-.4,0-.7-.3-.9-.6-.1-.4-.1-.7.1-1.1.3-.5.7-.9,1-1.4.9-1.1.9-2.6-.1-3.7-.5-.5-.9-.9-1.4-1.4-1-1-2.5-1.1-3.7-.2-.5.4-.9.7-1.4,1.1-.3.2-.7.3-1,.1-.4-.1-.6-.5-.6-.8-.1-.6-.2-1.2-.2-1.8-.2-1.4-1.2-2.4-2.6-2.4-.7,0-1.4,0-2.1,0-1.3,0-2.4,1.1-2.6,2.4h0c0,.7-.1,1.2-.2,1.8,0,.4-.3.7-.6.9-.4.1-.7.1-1.1-.1-.5-.3-.9-.7-1.4-1.1-1.1-.9-2.6-.8-3.7.2-.5.5-.9.9-1.4,1.4-1,1-1.1,2.5-.1,3.7.4.4.7.9,1,1.4.2.3.3.7.1,1.1-.1.4-.5.6-.9.6-.6,0-1.2.2-1.8.2-1.4.2-2.4,1.3-2.4,2.6,0,.7,0,1.4,0,2.1,0,1.4,1,2.5,2.4,2.6.6,0,1.2.1,1.7.2.4,0,.8.3.9.7.1.4,0,.8-.2,1.1-.3.5-.7.9-1,1.4-.9,1.1-.8,2.6.1,3.6.5.5.9,1,1.4,1.4,1,1,2.5,1,3.6.1.5-.4.9-.7,1.4-1.1.3-.2.7-.3,1.1-.1.4.1.6.5.6.9,0,.6.2,1.2.2,1.8.2,1.4,1.3,2.4,2.6,2.4.4,0,.7,0,1,0s.7,0,1,0c1.4,0,2.5-1.1,2.6-2.4,0-.6.1-1.1.2-1.7,0-.5.3-.8.7-.9.4-.1.8,0,1.1.2.2.1.3.3.5.4.3.2.6.5.9.7.3.2.6.3.9.5.1,0,.2,0,.3.1l.8.2v-.3c.6,0,1.1-.3,1.4-.7.5-.5,1-.9,1.4-1.4,1-1,1-2.5.1-3.6-.4-.5-.7-.9-1-1.4-.2-.3-.3-.7-.1-1.1.1-.4.5-.6.9-.6.6,0,1.2-.2,1.8-.2,1.3-.2,2.4-1.2,2.4-2.6s0-1.4,0-2.1h0ZM34.3,20.9c0,.5-.4,1-1,1-.6,0-1.2.1-1.8.2-1,.1-1.7.8-2.1,1.6-.4.9-.2,1.9.3,2.6.4.5.7,1,1.1,1.5.4.5.4,1.1,0,1.5-.4.5-.9.9-1.4,1.4-.2.2-.5.3-.7.3h-.1c-.2-.1-.5-.2-.7-.3-.3-.2-.5-.4-.8-.6-.2-.1-.4-.3-.5-.4-.8-.6-1.8-.8-2.7-.4-.9.4-1.5,1.2-1.6,2.2,0,.6-.2,1.2-.2,1.8,0,.6-.5,1-1,1-.7,0-1.3,0-2,0-.5,0-1-.4-1.1-1,0-.6-.1-1.2-.2-1.8-.1-1-.8-1.7-1.6-2.1-.3-.1-.7-.2-1-.2-.6,0-1.1.2-1.6.5-.5.4-1,.7-1.5,1.1s-1.1.4-1.5,0c-.5-.4-.9-.9-1.3-1.3-.4-.4-.4-1,0-1.5.4-.5.7-.9,1.1-1.4.6-.8.7-1.8.3-2.7-.4-.9-1.2-1.5-2.2-1.6-.6,0-1.2-.2-1.8-.2-.6,0-1-.5-1-1.1,0-.7,0-1.3,0-2,0-.5.4-1,1-1,.6,0,1.2-.1,1.8-.2.9-.1,1.7-.8,2.1-1.6.4-.9.3-1.9-.3-2.6-.4-.5-.7-1-1.1-1.5-.4-.5-.4-1.1,0-1.5s.9-.9,1.3-1.3c.5-.4,1-.5,1.5,0,.5.4,1,.8,1.5,1.1.8.6,1.8.7,2.6.3.9-.4,1.5-1.2,1.6-2.1,0-.6.2-1.1.2-1.7h0c0-.7.5-1.1,1-1.1.7,0,1.3,0,2,0,.5,0,1,.4,1,1,0,.6.1,1.2.2,1.8.1.9.8,1.7,1.6,2.1s1.8.3,2.6-.3c.5-.3,1-.7,1.5-1.1.5-.4,1.1-.4,1.5,0,.5.4.9.9,1.3,1.3s.5,1,0,1.5c-.4.5-.8,1-1.1,1.5-.5.8-.7,1.8-.3,2.6s1.1,1.5,2.1,1.6c.6.1,1.2.2,1.8.2.6,0,1,.5,1,1,0,.7,0,1.3,0,2h0Z"/>
</svg>