<?xml version="1.0" encoding="UTF-8"?>
<svg id="_圖層_1" data-name="圖層 1" xmlns="http://www.w3.org/2000/svg" viewBox="0 0 113.39 113.39">
  <defs>
    <style>
      .cls-1 {
        fill: #474747;
        stroke-width: 0px;
      }
    </style>
  </defs>
  <g id="_5mCBzS" data-name="5mCBzS">
    <g>
      <path class="cls-1" d="M58.28,36.06c.5,0,.89,0,1.28,0,12.43,0,24.86,0,37.29,0,3.83,0,5.87,2.04,5.87,5.87,0,15.24,0,30.49,0,45.73,0,1.95-.42,2.36-2.4,2.36-29.09,0-58.19,0-87.28,0-1.96,0-2.38-.42-2.38-2.39,0-19.05,0-38.09,0-57.14,0-4.48,2.68-7.14,7.16-7.15,11.11,0,22.22,0,33.32,0,4.43,0,7.12,2.68,7.12,7.08,0,1.82,0,3.63,0,5.61ZM13.89,86.78h85.57v-28.45H13.89v28.45ZM55.11,55.05c0-.37,0-.69,0-1.02,0-7.87,0-15.74,0-23.61,0-2.59-1.31-3.9-3.91-3.9-11.14,0-22.28,0-33.42,0-2.65,0-3.94,1.3-3.94,3.97,0,7.84,0,15.67,0,23.51v1.04h41.27ZM58.35,39.23v15.8h41.2c0-4.43,0-8.79,0-13.15,0-2.05-.61-2.65-2.66-2.65-12.49,0-24.98,0-37.46,0h-1.07Z"/>
      <path class="cls-1" d="M40.82,81.54c-5.03,0-10.05,0-15.08,0-.3,0-.6.02-.89-.01-.88-.09-1.41-.59-1.47-1.46-.06-.88.43-1.44,1.27-1.64.35-.08.72-.06,1.09-.06,10.05,0,20.1,0,30.15,0,.1,0,.2,0,.3,0,1.32.01,2.08.6,2.08,1.6,0,1.01-.73,1.57-2.08,1.57-5.12,0-10.25,0-15.37,0Z"/>
      <path class="cls-1" d="M75.69,81.54c-4.07,0-8.13,0-12.2,0-1.28,0-2-.55-2.03-1.52-.03-1.01.73-1.65,2.03-1.65,8.17,0,16.33,0,24.5,0,.77,0,1.53.12,1.82.9.16.44.2,1.18-.05,1.46-.39.42-1.09.77-1.66.78-4.13.06-8.26.03-12.4.03Z"/>
      <path class="cls-1" d="M34.52,31.06c5.12,0,10.25,0,15.37,0,.33,0,.67-.02.99.03.79.11,1.25.61,1.34,1.38.09.77-.27,1.37-1.01,1.62-.39.13-.84.14-1.27.14-10.31,0-20.62,0-30.94,0-.3,0-.6.02-.89-.03-.86-.13-1.45-.83-1.41-1.65.04-.83.66-1.46,1.56-1.48,1.59-.03,3.17-.01,4.76-.01,3.83,0,7.67,0,11.5,0Z"/>
      <path class="cls-1" d="M34.37,50.58c-5.12,0-10.25,0-15.37,0-.3,0-.6.02-.89-.02-.83-.11-1.32-.62-1.39-1.43-.07-.82.35-1.41,1.15-1.62.37-.1.78-.09,1.18-.09,10.28,0,20.56,0,30.84,0,.17,0,.33,0,.5,0,1.14.04,1.87.68,1.86,1.62-.02.95-.73,1.54-1.91,1.55-5.32,0-10.64,0-15.96,0Z"/>
      <path class="cls-1" d="M50.86,39.26c.86.16,1.37.7,1.37,1.57,0,.87-.52,1.4-1.38,1.56-.19.04-.4.02-.59.02-10.51,0-21.02,0-31.53,0-.2,0-.4.01-.59-.02-.85-.11-1.49-.81-1.42-1.63.07-.87.56-1.39,1.43-1.51.36-.05,32.43-.05,32.72,0Z"/>
    </g>
  </g>
</svg>